<?xml version="1.0" encoding="UTF-8"?>
<svg id="Layer_1" xmlns="http://www.w3.org/2000/svg" version="1.1" viewBox="0 0 250.61 47.42">
  <!-- Generator: Adobe Illustrator 29.5.1, SVG Export Plug-In . SVG Version: 2.1.0 Build 141)  -->
  <defs>
    <style>
      .st0, .st1 {
        fill: #231f20;
      }

      .st2 {
        fill: #cccf19;
      }

      .st3, .st4 {
        fill: #007f3e;
      }

      .st3, .st1 {
        fill-rule: evenodd;
      }
    </style>
  </defs>
  <g>
    <path class="st2" d="M0,16.73c2.95,2.04,5.44,2.72,7.45,2.04,1.57-7.14,7.12-12.76,14.32-13.64,8.3-1.02,15.99,4.59,18.42,12.93,4.41-.27,8.03.36,10.86,1.89-1.72.68-3.57,3.08-5.54,7.18-2.58,4.99-5.79,7.83-8.37,7.95-2.64,3.42-6.46,5.78-10.92,6.33-5.78.71-11.27-1.8-14.89-6.21C4.98,33.26,1.2,27.11,0,16.73Z"/>
    <path class="st3" d="M18.21,6.75c-4.82,2.08-7.95,5.84-9.4,11.3,3.56.5,6.24,1.33,8.05,2.47-.77-6.25-.32-10.84,1.36-13.77Z"/>
    <path class="st3" d="M21.67,6.18c8.09-.41,13.58,3.49,16.48,11.68-3.66-.15-6.47,1.32-8.44,4.39-.29-4.28-.77-6.82-1.42-7.64,0,0-1.83-2.62-2.87-3.28-2.38-2.29-3.63-4.01-3.75-5.16Z"/>
    <path class="st3" d="M19.29,8.02c-2.61,10.95-.47,17.68,6.42,20.18-.63-2.42-.81-4.2-.55-5.35l-2.15,1.16.99-4.75-1.94,1.2c.1-1.51.5-2.83,1.22-3.99l-2.18.37c.2-1.6.72-2.82,1.57-3.65l-1.7.07c-.6-1.79-.64-3.34-.13-4.64l-1.55-.6Z"/>
    <path class="st3" d="M21.84,34.05c-4.74,1.72-9.34.91-13.8-2.42-4.25-3.59-6.34-7.87-6.27-12.83l1.01.42c.42,1.46,1.83,3.21,4.24,5.27l1.24-1.59c.32,2.44,1,4.06,2.04,4.85l.82-1.95c.39,2.46.94,3.77,1.65,3.94.25-1.48.65-2.45,1.18-2.92.49,3.46,1.32,5.32,2.5,5.59-.13-1.47-.06-2.61.23-3.42,1.32,2.54,3.04,4.23,5.14,5.06Z"/>
    <path class="st3" d="M22.3,27.69c1.33,1.13,2.58,1.69,3.77,1.66l-1.35,4.07-2.42-5.73Z"/>
    <path class="st3" d="M14.88,36.58c3.79.56,7.07.17,9.83-1.15-.26,1.07.22,1.62,1.45,1.65l5.79-.73.13.89c-3.52,2.09-7.1,2.88-10.74,2.36-2.57-.53-4.72-1.54-6.45-3.03Z"/>
    <path class="st3" d="M25.76,34.34l2.06-5.1.45.29c.55-3.71,2.76-6.76,6.62-9.14,4.24-2.13,8.64-1.98,13.21.47-2.6.28-4.95.88-7.04,1.81.55.4.83,1.05.82,1.94-1.32-1.03-2.78-1.18-3.74-.21.84.32,1.24.78,1.21,1.38-1.68-.27-3.08.07-4.19,1.01,1.19.52,1.87,1.27,2.02,2.25-2-1.14-3.8-1.15-5.4-.02.84.38,1.28.92,1.35,1.62-2.98.37-5.39,1.68-7.22,3.94l-.15-.22Z"/>
    <polygon class="st1" points="7.08 14.65 4.17 13.23 3.66 14.26 3.07 13.97 4.43 11.2 5.02 11.49 4.51 12.52 7.42 13.94 7.08 14.65"/>
    <polygon class="st1" points="8.34 12.27 5.27 9.88 5.76 9.25 6.97 10.2 7.91 8.99 6.7 8.04 7.19 7.42 10.26 9.82 9.77 10.44 8.43 9.39 7.48 10.6 8.83 11.65 8.34 12.27"/>
    <polygon class="st1" points="11 9.09 8.44 6.15 10.62 4.26 11.05 4.76 9.47 6.13 10.04 6.79 11.51 5.51 11.94 6 10.47 7.28 11.16 8.08 12.8 6.66 13.23 7.15 11 9.09"/>
    <path class="st1" d="M14.8,2.6l.45,1.01.39-.17c.28-.13.46-.23.54-.31.08-.08.13-.17.15-.28.02-.1,0-.21-.04-.31-.06-.13-.14-.22-.26-.27-.11-.05-.23-.06-.36-.03-.09.02-.27.09-.53.21l-.35.15ZM15.4,5.88l-1.58-3.56,1.15-.51c.44-.19.73-.3.88-.33.23-.04.45,0,.67.12s.39.32.51.6c.1.22.14.42.13.6-.01.18-.06.35-.15.49-.08.14-.18.25-.3.33-.16.11-.4.24-.72.38l-.47.21.6,1.34-.72.32Z"/>
    <polygon class="st1" points="19.01 4.48 18.2 .7 18.98 .53 19.64 3.67 21.55 3.26 21.69 3.91 19.01 4.48"/>
    <path class="st1" d="M24.65,2.38l-.49-1.46-.58,1.42,1.07.04ZM26.04,3.98l-.85-.03-.31-.9-1.56-.05-.35.88-.83-.03,1.65-3.84.83.03,1.42,3.95Z"/>
    <polygon class="st1" points="26.74 4.11 27.81 .37 28.54 .58 29.37 3.53 30.08 1.02 30.79 1.22 29.71 4.97 28.95 4.75 28.14 1.85 27.44 4.31 26.74 4.11"/>
    <polygon class="st1" points="30.73 5.36 32.62 1.96 33.29 2.33 33.43 5.39 34.69 3.1 35.33 3.46 33.44 6.86 32.75 6.48 32.61 3.48 31.37 5.72 30.73 5.36"/>
    <polygon class="st1" points="34.33 7.51 36.93 4.62 39.08 6.55 38.64 7.04 37.08 5.63 36.5 6.28 37.95 7.58 37.51 8.07 36.06 6.77 35.35 7.55 36.97 9 36.53 9.49 34.33 7.51"/>
    <path class="st1" d="M39.39,9.42l.35.46c.23.3.38.48.46.54s.17.08.26.08c.09,0,.19-.04.28-.11.1-.08.17-.17.19-.28.02-.1,0-.21-.06-.33-.03-.06-.14-.21-.33-.47l-.37-.49-.79.6ZM37.12,10.14l3.11-2.34,1,1.32c.25.33.4.6.46.79s.05.39-.03.59c-.07.2-.2.37-.39.51-.23.18-.48.25-.73.23s-.51-.15-.75-.4c.02.19.02.37,0,.53-.03.16-.11.4-.24.74l-.32.84-.57-.75.34-.96c.12-.34.19-.57.21-.68.02-.11.01-.2-.01-.29-.03-.08-.1-.2-.2-.34l-.1-.13-1.3.98-.47-.63Z"/>
    <path class="st1" d="M43.35,12.45l.06.12c.08.16.14.26.17.3.03.03.07.05.11.06.04,0,.08,0,.12-.02.04-.02.07-.05.09-.08.02-.04.03-.08.02-.13,0-.05-.05-.15-.13-.31l-.06-.12-.38.19ZM42.41,12.56l1.4-.68.14.28c.13.27.2.42.22.45.04.1.06.18.05.25,0,.07-.03.13-.07.2-.04.06-.1.11-.18.15-.1.05-.2.06-.31.03-.1-.03-.19-.1-.27-.21,0,.05,0,.09,0,.12,0,.03-.03.08-.06.15,0,.02-.05.08-.12.19l-.2.3-.17-.35.17-.23c.12-.15.18-.27.19-.34.01-.07,0-.15-.04-.22l-.04-.07-.58.28-.14-.29ZM44.47,12.29c-.09-.18-.22-.33-.39-.46-.17-.12-.37-.19-.59-.2-.22-.01-.42.03-.61.12-.19.09-.34.22-.46.4-.12.18-.19.37-.2.59-.01.21.03.41.12.6.09.19.22.34.4.46s.37.19.59.2c.21.01.41-.03.6-.12.19-.09.34-.23.47-.41.12-.18.19-.38.2-.59,0-.21-.03-.41-.12-.59ZM44.74,12.16c.11.23.16.47.15.74-.01.26-.09.51-.25.73s-.35.39-.58.5c-.23.11-.48.16-.75.15-.27-.01-.51-.1-.73-.25-.22-.15-.39-.34-.5-.57-.11-.23-.16-.48-.15-.75.01-.27.1-.51.25-.73.15-.22.34-.39.57-.5.23-.11.48-.16.75-.15.27.02.51.1.73.25.22.15.38.34.49.57Z"/>
    <polygon class="st1" points="6.52 38.03 9.46 35.47 9.98 36.07 8.82 37.08 9.82 38.23 10.98 37.23 11.5 37.82 8.56 40.38 8.04 39.78 9.33 38.67 8.32 37.51 7.04 38.62 6.52 38.03"/>
    <polygon class="st1" points="9.84 41.56 12.18 38.45 14.49 40.18 14.09 40.71 12.42 39.45 11.9 40.14 13.45 41.31 13.06 41.84 11.5 40.66 10.87 41.51 12.6 42.81 12.2 43.34 9.84 41.56"/>
    <path class="st1" d="M15.27,42.45l.53.24c.34.15.57.23.67.24.1,0,.19-.01.27-.06s.14-.13.19-.24c.05-.12.06-.23.03-.33s-.1-.19-.21-.26c-.05-.03-.23-.12-.52-.25l-.56-.25-.4.9ZM13.64,44.19l1.58-3.56,1.51.67c.38.17.64.32.79.47s.23.32.26.53,0,.42-.09.63c-.12.27-.3.45-.53.56-.23.1-.52.11-.85.02.11.16.2.32.25.47.05.15.1.41.15.76l.13.89-.86-.38-.17-1.01c-.06-.36-.11-.59-.15-.69-.04-.1-.09-.18-.15-.24-.06-.06-.18-.13-.35-.2l-.15-.07-.66,1.49-.72-.32Z"/>
    <path class="st1" d="M19.36,44.47l-.18,1.03.72.13c.28.05.46.07.54.07.12,0,.22-.04.31-.1.09-.07.14-.17.17-.31.02-.12,0-.22-.03-.31-.04-.09-.11-.16-.21-.22-.1-.06-.33-.11-.68-.18l-.63-.11ZM19.63,42.95l-.16.88.51.09c.3.05.49.08.56.09.14,0,.25-.02.34-.08.09-.06.14-.16.17-.28.02-.12,0-.22-.05-.31-.05-.09-.14-.15-.27-.19-.08-.02-.29-.07-.66-.13l-.44-.08ZM18.97,42.18l1.53.27c.3.05.53.11.67.16.14.05.27.13.37.23.1.1.18.22.24.37.06.15.07.3.04.47-.03.18-.11.34-.23.47-.12.13-.27.22-.45.27.22.11.38.26.48.44.1.19.12.39.09.61-.03.17-.1.34-.21.49-.11.15-.24.26-.4.34-.16.07-.34.1-.55.09-.13,0-.44-.06-.94-.14l-1.31-.23.68-3.84Z"/>
    <path class="st1" d="M25.2,45.01l-.64-1.4-.42,1.48,1.06-.07ZM26.75,46.45l-.85.06-.4-.86-1.56.11-.26.91-.83.06,1.24-3.99.83-.06,1.83,3.78Z"/>
    <polygon class="st1" points="28.08 46.17 27.02 42.45 27.78 42.24 28.66 45.32 30.54 44.78 30.72 45.41 28.08 46.17"/>
    <rect class="st0" x="32.4" y="40.31" width=".79" height="3.9" transform="translate(-16.38 21.2) rotate(-29)"/>
    <polygon class="st1" points="35.32 43.04 32.92 39.97 33.52 39.5 36.39 40.57 34.78 38.52 35.36 38.07 37.75 41.14 37.13 41.62 34.31 40.58 35.89 42.59 35.32 43.04"/>
    <polygon class="st1" points="39.57 39.23 37.09 37.15 36.35 38.03 35.84 37.61 37.83 35.24 38.33 35.67 37.59 36.55 40.07 38.63 39.57 39.23"/>
  </g>
  <g>
    <path class="st4" d="M59.37,33.03c-.4,0-1.32.84-1.32-5.23,0-4.66.92-7.63.92-8.41,0-.63.1-1-.42-1-1.48,0-4.1,2.4-4.45,2.4-.19,0-.29.08-.29-.5,0-.65.56-3.24.88-3.83.21-.4,3.03-1.15,5.85-1.15,3.37,0,6.36.9,6.36,1.88,0,.92-1.02,2.91-1.25,2.91-.36,0-1.21-1.74-2.72-1.74-1.28,0-1.48,3.99-1.48,5.92,0,5.37,1.15,8.01,1.15,8.38,0,.46-.75.36-1.02.36h-2.2Z"/>
    <path class="st4" d="M70.58,15.2c.19,0,.33.23.33.44,0,.29-.79,2.34-.79,4.01,0,.25,0,.65.36.65.17,0,.5-.19.96-.46.48-.25,1.07-.5,1.76-.5,1.9,0,3.3,1.36,3.3,6.4,0,2.01-.29,7.3-.94,7.3h-2.17c-.19,0-.75.06-.75-.27,0-.15,1.05-4.29,1.05-7.07,0-3.24-.54-3.89-1.57-3.89-2.13,0-2.17,3.26-2.17,4.75,0,4.18.46,5.54.46,6.15,0,.33-.4.33-.61.33h-2.07c-.61,0-.61.71-.61-8.57,0-1.67.04-9.26,1.19-9.26h2.28Z"/>
    <path class="st4" d="M77.04,26.9c0-5.06,2.8-7.57,5.6-7.57,2.3,0,4.24,1.3,4.24,3.76,0,4.5-6.73,3.55-6.73,5.73,0,.98,1.59,1.69,2.63,1.69,3.43,0,3.43-2.61,3.72-2.61.31,0,.38,1.09.38,1.25,0,2.66-2.05,4.18-4.56,4.18-3.74,0-5.29-3.09-5.29-6.44ZM79.86,24.83c0,.23.1.46.38.46.25,0,4.06-.84,4.06-1.9s-.96-1.59-1.76-1.59c-1.69,0-2.68,1.82-2.68,3.03Z"/>
    <path class="st4" d="M100.88,15.64c3.43,0,4.14,2.49,4.14,3.72,0,5.6-8.18,6.42-8.18,9.05,0,1.76.73,4.31.73,4.43,0,.25-.48.19-.63.19h-2.78c-.52,0-1.15.4-1.15-7.44,0-10.33,1.09-9.95,1.44-9.95h6.42ZM101.63,20.03c0-1.44-1.25-1.92-2.51-1.92-1.51,0-2.74.23-2.72,5.04,0,.5.04.96.65.96,1.09,0,4.58-2.57,4.58-4.08Z"/>
    <path class="st4" d="M105.98,33.03c-.73,0-.65-7-.65-7.49,0-.98-.08-10.35.86-10.35h1.99c.23,0,.86-.06.86.4,0,.13-.88,3.14-.88,8.34,0,5.75.79,8.57.79,8.84,0,.36-.54.25-.77.25h-2.2Z"/>
    <path class="st4" d="M114.35,24.33c.61-.1,1.09-.21,1.09-.9,0-1.07-1.11-1.63-2.03-1.63-2.13,0-1.82,1.8-2.28,1.8-.67,0-1.4-.82-1.4-1.71,0-1.55,1.74-2.55,3.66-2.55.67,0,3.53-.02,4.6,2.91.44,1.21.48,7.4.48,8.13,0,.92.17,1.46.17,2.17,0,.44-1.97.48-3.83.48-5.04,0-5.39-2.59-5.39-3.85,0-2.63,2.59-4.45,4.93-4.85ZM115.64,27.99c0-.73.13-1.61-.88-1.61-1.23,0-2.53,1.05-2.53,2.32,0,1.17,1.02,1.86,2.13,1.86,1.23,0,1.28-.63,1.28-1.65v-.92Z"/>
    <path class="st4" d="M126.18,33.03c-.27,0-.73.06-.73-.33,0-.21,1.07-2.99,1.07-7.23,0-1.48-.13-3.35-1.55-3.35-.79,0-2.43.52-2.43,4.66,0,2.51.61,5.73.61,5.98,0,.29-.36.27-.56.27h-1.78c-.77,0-1.09.36-1.09-5.16,0-9.47.73-8.89,2.34-8.89.73,0,1.48-.1,1.48.38,0,.21-.19.46-.19.75,0,.21.1.4.31.4.36,0,1.32-.86,2.66-.86.59,0,3.01.08,3.01,5.58,0,8.22-.65,7.8-1.36,7.8h-1.8Z"/>
    <path class="st4" d="M136.89,33.03c-.27,0-.73.06-.73-.33,0-.21,1.07-2.99,1.07-7.23,0-1.48-.13-3.35-1.55-3.35-.79,0-2.43.52-2.43,4.66,0,2.51.61,5.73.61,5.98,0,.29-.36.27-.56.27h-1.78c-.77,0-1.09.36-1.09-5.16,0-9.47.73-8.89,2.34-8.89.73,0,1.48-.1,1.48.38,0,.21-.19.46-.19.75,0,.21.1.4.31.4.36,0,1.32-.86,2.66-.86.59,0,3.01.08,3.01,5.58,0,8.22-.65,7.8-1.36,7.8h-1.8Z"/>
    <path class="st4" d="M140.61,26.9c0-5.06,2.8-7.57,5.6-7.57,2.3,0,4.24,1.3,4.24,3.76,0,4.5-6.73,3.55-6.73,5.73,0,.98,1.59,1.69,2.63,1.69,3.43,0,3.43-2.61,3.72-2.61.31,0,.38,1.09.38,1.25,0,2.66-2.05,4.18-4.56,4.18-3.74,0-5.29-3.09-5.29-6.44ZM143.43,24.83c0,.23.1.46.38.46.25,0,4.06-.84,4.06-1.9s-.96-1.59-1.76-1.59c-1.69,0-2.68,1.82-2.68,3.03Z"/>
    <path class="st4" d="M152.45,33.03c-.77,0-1.15.65-1.15-6.27,0-5.79-.17-7.09.42-7.11h1.74c.31,0,.69-.1.71.29.04.31.08.71.5.71.31,0,.67-.33,1.11-.67.44-.31.94-.65,1.51-.65,1.07,0,1.94.92,1.94,2.05,0,1.46-1.19,2.34-1.82,2.34-.25,0,.04-1.4-1.4-1.4-1.76,0-1.88,2.82-1.88,4.08,0,4.16.71,5.92.71,6.29-.02.33-.48.33-.71.33h-1.67Z"/>
    <path class="st4" d="M173.76,33.03c-.21,0-.77.02-.77-.31,0-.1.02-.21.06-.29.73-1.92,1.34-3.89,1.34-5.96,0-1.42-.56-1.9-1.97-1.9-2.11,0-4.37,1-4.37,3.43,0,1.51.27,3.14.86,4.52.04.08.08.23.08.31,0,.29-.5.21-.67.21h-3.07c-.59,0-.59-6.02-.59-6.92,0-1.53.42-10.48,1.42-10.48h2.84c.13,0,.63-.06.63.19,0,.27-1.42,3.3-1.42,5.52,0,.52.19,1.02.5,1.02.65,0,.65-.63,3.49-.63,1.02,0,1.84.23,1.84-.65,0-1.99-1.84-4.98-1.84-5.25s.63-.21.75-.21h2.74c.79,0,1.82,6.02,1.82,10.48,0,1,0,6.92-.67,6.92h-3.01Z"/>
    <path class="st4" d="M178.09,26.9c0-5.06,2.8-7.57,5.6-7.57,2.3,0,4.24,1.3,4.24,3.76,0,4.5-6.73,3.55-6.73,5.73,0,.98,1.59,1.69,2.63,1.69,3.43,0,3.43-2.61,3.72-2.61.31,0,.38,1.09.38,1.25,0,2.66-2.05,4.18-4.56,4.18-3.74,0-5.29-3.09-5.29-6.44ZM180.91,24.83c0,.23.1.46.38.46.25,0,4.06-.84,4.06-1.9s-.96-1.59-1.76-1.59c-1.69,0-2.68,1.82-2.68,3.03Z"/>
    <path class="st4" d="M189.92,33.03c-.77,0-1.15.65-1.15-6.27,0-5.79-.17-7.09.42-7.11h1.74c.31,0,.69-.1.71.29.04.31.08.71.5.71.31,0,.67-.33,1.11-.67.44-.31.94-.65,1.51-.65,1.07,0,1.94.92,1.94,2.05,0,1.46-1.19,2.34-1.82,2.34-.25,0,.04-1.4-1.4-1.4-1.76,0-1.88,2.82-1.88,4.08,0,4.16.71,5.92.71,6.29-.02.33-.48.33-.71.33h-1.67Z"/>
    <path class="st4" d="M199.71,15.2c.25,0,.75,0,.75.46,0,.17-.63,2.26-.63,3.49,0,.33.06.67.46.67.23,0,.52-.1.86-.23.36-.1.77-.25,1.21-.25,1.78,0,4.27,1.59,4.27,6,0,2.4-.61,4.33-2.13,6.06-.61.71-1.71,1.63-3.3,1.63h-3.7c-.73,0-.65-7-.65-7.49,0-.98-.08-10.35.86-10.35h2.01ZM203.81,25.59c0-3.43-1.48-4.27-2.36-4.27-1.48,0-1.78.73-1.78,3.78,0,4.52,1.07,4.43,1.61,4.43,2.05,0,2.53-2.4,2.53-3.95Z"/>
    <path class="st4" d="M211.86,24.33c.61-.1,1.09-.21,1.09-.9,0-1.07-1.11-1.63-2.03-1.63-2.13,0-1.82,1.8-2.28,1.8-.67,0-1.4-.82-1.4-1.71,0-1.55,1.74-2.55,3.66-2.55.67,0,3.53-.02,4.6,2.91.44,1.21.48,7.4.48,8.13,0,.92.17,1.46.17,2.17,0,.44-1.97.48-3.83.48-5.04,0-5.39-2.59-5.39-3.85,0-2.63,2.59-4.45,4.93-4.85ZM213.15,27.99c0-.73.13-1.61-.88-1.61-1.23,0-2.53,1.05-2.53,2.32,0,1.17,1.02,1.86,2.13,1.86,1.23,0,1.28-.63,1.28-1.65v-.92Z"/>
    <path class="st4" d="M218.07,33.03c-.73,0-.65-7-.65-7.49,0-.98-.08-10.35.86-10.35h1.99c.23,0,.86-.06.86.4,0,.13-.88,3.14-.88,8.34,0,5.75.79,8.57.79,8.84,0,.36-.54.25-.77.25h-2.2Z"/>
    <path class="st4" d="M228.48,33.03c-.52,0-1.15.4-1.15-7.44,0-10.33,1.09-9.95,1.44-9.95h2.26c.27,0,.79-.06.79.33,0,.21-1.11,3.7-1.11,7.74,0,5.35,1.05,8.8,1.05,9.1,0,.21-.13.23-.31.23h-2.97Z"/>
    <path class="st4" d="M239.46,33.03c-.27,0-.73.06-.73-.33,0-.21,1.07-2.99,1.07-7.23,0-1.48-.13-3.35-1.55-3.35-.79,0-2.43.52-2.43,4.66,0,2.51.61,5.73.61,5.98,0,.29-.36.27-.56.27h-1.78c-.77,0-1.09.36-1.09-5.16,0-9.47.73-8.89,2.34-8.89.73,0,1.48-.1,1.48.38,0,.21-.19.46-.19.75,0,.21.1.4.31.4.36,0,1.32-.86,2.66-.86.59,0,3.01.08,3.01,5.58,0,8.22-.65,7.8-1.36,7.8h-1.8Z"/>
    <path class="st4" d="M248.6,17.04c0,.56-.63,1.84-.63,2.09,0,.38.1.63.42.63.27,0,.52-.1.79-.1.79,0,.82.56.82,1.28,0,.29,0,1.09-.44,1.09-.17,0-.59-.19-.96-.19-1.15,0-1.15,1.34-1.15,3.2,0,5.56,1.17,6.48,1.17,6.84,0,.31-2.43,1.48-2.91,1.48-.79,0-1-4.66-1-5.81,0-2.57.13-3.58.13-3.97,0-.63.19-1.74-.75-1.74-.38,0-.59.25-.82.25-.27,0-.25-.27-.25-.65,0-1.59.46-1.78,1.25-1.78.08,0,.23.08.4.08.65,0,.71-1.02.82-1.76.1-.79,2.45-1.38,2.86-1.38.15,0,.25.04.25.44Z"/>
  </g>
</svg>